<svg width="40" height="40" viewBox="0 0 40 40" fill="none" xmlns="http://www.w3.org/2000/svg">
<path d="M36.6665 9.25825V30.7416C36.6665 31.7999 36.0082 32.7416 35.0165 33.0916L27.6665 36.5416L28.3332 27.4999V12.4999L27.6665 3.45825L35.0165 6.90825C36.0082 7.25825 36.6665 8.19992 36.6665 9.25825Z" fill="#29B6F6"/>
<path d="M7.50002 28.2468L28.3333 12.5001V4.46095C28.3333 3.46262 27.0983 2.99595 26.4375 3.74428L3.88168 24.366C3.13168 25.0576 3.17418 26.2551 3.97085 26.8926C3.97085 26.8926 5.07418 27.9193 5.47335 28.2043C6.08668 28.6418 6.89252 28.6918 7.50002 28.2468Z" fill="#0277BD"/>
<path d="M7.50002 11.7532L28.3333 27.4999V35.5391C28.3333 36.5374 27.0983 37.0041 26.4375 36.2557L3.88168 15.6341C3.13168 14.9424 3.17418 13.7449 3.97085 13.1074C3.97085 13.1074 5.07418 12.0807 5.47335 11.7957C6.08668 11.3582 6.89252 11.3082 7.50002 11.7532Z" fill="#0288D1"/>
</svg>
