<svg width="37" height="32" viewBox="0 0 37 32" fill="none" xmlns="http://www.w3.org/2000/svg">
<path d="M6.57863 10.3612C6.97239 10.23 7.3695 10.1085 7.76957 9.99675C7.70236 9.73008 7.6405 9.46664 7.58558 9.20784C6.68399 4.95787 7.27339 1.53401 9.28657 0.406712C11.2168 -0.673989 14.3735 0.452888 17.5616 3.1472C17.8758 3.41322 18.183 3.68689 18.4829 3.96798C18.6838 3.78107 18.8881 3.59778 19.0959 3.41822C22.4372 0.537379 25.7863 -0.676796 27.7973 0.45373C29.7257 1.5378 30.2968 4.75647 29.4851 8.78426C29.4043 9.18317 29.3132 9.58002 29.2116 9.97443C29.6857 10.1052 30.1431 10.2445 30.5809 10.3927C34.4983 11.719 37 13.7975 37 15.9534C37 18.18 34.3143 20.4135 30.2342 21.7677C29.9034 21.877 29.5699 21.9784 29.2339 22.0716C29.343 22.4964 29.4399 22.924 29.5244 23.3541C30.2982 27.312 29.6939 30.4546 27.7707 31.5318C25.7842 32.6442 22.4502 31.5009 19.2039 28.7451C18.9406 28.5211 18.6832 28.2907 18.4318 28.0542C18.1069 28.3585 17.7734 28.654 17.4316 28.9403C14.2869 31.568 11.1812 32.629 9.25983 31.5489C7.27527 30.4332 6.63023 27.0572 7.46764 22.9499C7.53361 22.6281 7.60759 22.3079 7.6895 21.9896C7.45536 21.9222 7.22555 21.8529 7.00153 21.7808C2.75982 20.4161 0 18.2098 0 15.9534C0 13.7896 2.58249 11.6971 6.57863 10.3612ZM7.49857 20.3239C7.70091 20.3889 7.90846 20.4516 8.12006 20.5127C8.58834 19.0731 9.22023 17.5424 9.99361 15.9608C9.25564 14.417 8.64803 12.9058 8.1929 11.4756C7.81437 11.582 7.44712 11.6942 7.09302 11.8125C3.66907 12.9572 1.58059 14.6494 1.58059 15.9534C1.58059 17.3423 3.83615 19.1454 7.49857 20.3239ZM9.01817 23.248C8.64788 25.0641 8.59513 26.7062 8.8404 27.99C9.06066 29.1436 9.5038 29.9125 10.0519 30.2206C11.2178 30.8761 13.7114 30.0241 16.4007 27.7768C16.7186 27.5106 17.0288 27.2359 17.331 26.953C16.2884 25.8457 15.2465 24.5586 14.2295 23.129C12.4408 22.9749 10.751 22.7228 9.21849 22.3788C9.14305 22.6745 9.07598 22.9645 9.01817 23.248ZM24.3859 30.1073C25.5251 30.4979 26.4325 30.5092 26.9809 30.2021C28.148 29.5485 28.6332 27.0251 27.9714 23.6404C27.8928 23.2404 27.8027 22.8427 27.7013 22.4476C26.1857 22.7732 24.5082 23.0073 22.7153 23.1485C21.6914 24.5473 20.6194 25.8331 19.539 26.959C19.7686 27.1747 20.0037 27.385 20.2439 27.5895C21.6795 28.808 23.1181 29.6725 24.3859 30.1073ZM29.7229 20.3153C31.527 19.7165 33.017 18.9382 34.0383 18.089C34.956 17.3259 35.4193 16.5681 35.4193 15.9534C35.4193 14.645 33.4107 12.9763 30.0606 11.8421C29.6541 11.7045 29.2286 11.5747 28.787 11.4529C28.3239 12.9153 27.7166 14.4445 26.9837 15.9907C27.7262 17.5598 28.3421 19.1134 28.8097 20.5931C29.1164 20.5078 29.4209 20.4152 29.7229 20.3153ZM27.9338 8.48938C28.6292 5.03857 28.1674 2.43548 27.0052 1.78215C25.7675 1.08629 23.0303 2.07843 20.1453 4.56601C19.9572 4.72859 19.7721 4.89447 19.5902 5.06355C20.6652 6.18454 21.7274 7.46075 22.7421 8.85135C24.4823 9.00798 26.148 9.25949 27.6795 9.59647C27.7738 9.22962 27.8586 8.86052 27.9338 8.48952V8.48938ZM11.9737 12.3165C12.3354 11.7097 12.7106 11.1106 13.0989 10.5196C11.9183 10.6645 10.7872 10.857 9.72507 11.0922C10.0439 12.0847 10.4414 13.1224 10.9092 14.1862C11.2512 13.5562 11.6061 12.9328 11.9737 12.3165ZM18.4822 6.16054C17.7532 6.92756 17.023 7.78384 16.3049 8.71296C17.7617 8.64614 19.221 8.64586 20.6779 8.71212C19.959 7.79156 19.2227 6.9364 18.4822 6.16054ZM25.0325 12.327C25.3955 12.9383 25.7438 13.5578 26.0771 14.185C26.5372 13.1249 26.9311 12.0825 27.2527 11.0759C26.197 10.8466 25.0713 10.6591 23.8982 10.5167C24.2909 11.1114 24.6691 11.7149 25.0325 12.3269V12.327ZM23.8646 21.4992C25.0765 21.3678 26.2191 21.19 27.2745 20.9669C26.9479 19.9423 26.5453 18.8777 26.0752 17.7949C25.7406 18.4225 25.3909 19.0424 25.0263 19.654C24.6514 20.2828 24.2632 20.8986 23.8646 21.4992ZM18.4386 25.8543C19.1878 25.0695 19.9351 24.2011 20.6648 23.2672C19.9563 23.2942 19.2341 23.3079 18.5 23.3079C17.7458 23.3079 17.0003 23.2915 16.2666 23.2598C16.987 24.2105 17.7145 25.0801 18.4386 25.8543ZM10.8943 17.7396C10.3997 18.8344 9.98292 19.8933 9.65194 20.9003C10.7247 21.1381 11.8829 21.3295 13.1033 21.4717C12.7123 20.8697 12.3336 20.2601 11.9675 19.6435C11.5953 19.0167 11.2375 18.3819 10.8943 17.7396ZM13.3366 18.8766C13.8971 19.8221 14.4891 20.7496 15.1116 21.6577C16.2393 21.7352 17.3695 21.7737 18.5 21.7732C19.6515 21.7732 20.7715 21.7384 21.8499 21.6704C22.4887 20.7644 23.092 19.8353 23.6585 18.885H23.6583C24.2221 17.9398 24.7487 16.9741 25.237 15.99C24.75 15.0057 24.225 14.0396 23.6631 13.0936L23.6632 13.0937C23.1016 12.1475 22.5031 11.2224 21.8692 10.3203C20.7689 10.2394 19.6405 10.1973 18.5001 10.1973H18.5C17.3544 10.1973 16.2246 10.2398 15.1246 10.3212C14.4971 11.222 13.9024 12.144 13.3418 13.0855C12.7781 14.0293 12.2461 14.9908 11.7468 15.9683C12.241 16.9557 12.7713 17.9258 13.3366 18.8766ZM10.076 1.7364C8.83707 2.43029 8.35521 5.22847 9.13365 8.89794C9.18337 9.13205 9.23916 9.3705 9.29986 9.61233C10.8351 9.26819 12.502 9.01233 14.2472 8.85331C15.2638 7.44741 16.3173 6.16924 17.3748 5.06271C17.0977 4.80328 16.8139 4.55057 16.5238 4.30482C13.7922 1.99647 11.2392 1.08503 10.076 1.7364ZM18.5 12.745C16.6753 12.745 15.196 14.1815 15.196 15.9534C15.196 17.7253 16.6753 19.1618 18.5 19.1618C20.3247 19.1618 21.804 17.7253 21.804 15.9534C21.804 14.1815 20.3247 12.745 18.5 12.745Z" fill="#00D8FF"/>
</svg>
